<svg width="2232" height="1731" viewBox="0 0 2232 1731" fill="none" xmlns="http://www.w3.org/2000/svg">
<path d="M310 1026.79C277.221 1030.75 247.761 1039.97 221.62 1054.46C185.658 1074.39 157.712 1107.1 137.781 1152.59C117.851 1197.65 107.886 1257.88 107.886 1333.27C107.886 1410.39 117.635 1471.92 137.132 1517.84C157.062 1563.77 185.008 1596.92 220.97 1617.28C247.191 1631.81 276.868 1641.04 310 1644.98V1730.87C255.598 1726.66 207.074 1713.28 164.428 1690.72C112.435 1662.99 71.9239 1620.1 42.8945 1562.04C14.2984 1503.55 0 1428.37 0 1336.52C3.44444e-05 1244.23 14.5146 1168.84 43.5439 1110.35C72.5732 1051.86 113.084 1008.75 165.077 981.017C207.666 958.49 255.974 945.114 310 940.887V1026.79ZM390 941.156C442.697 945.662 489.907 958.949 531.628 981.017C584.054 1008.75 624.565 1051.86 653.161 1110.35C682.191 1168.84 696.705 1244.23 696.705 1336.52C696.705 1428.37 682.191 1503.55 653.161 1562.04C624.132 1620.1 583.404 1662.99 530.978 1690.72C489.32 1712.75 442.327 1726.03 390 1730.56V1644.53C421.462 1640.36 449.824 1631.28 475.086 1617.28C511.481 1596.92 539.644 1564.2 559.574 1519.14C579.505 1474.08 589.47 1413.86 589.47 1338.47C589.47 1261.34 579.505 1199.82 559.574 1153.89C539.644 1107.97 511.481 1075.04 475.086 1055.11C449.824 1040.8 421.462 1031.52 390 1027.26V941.156Z" fill="white"/>
<path d="M1707.37 822.688L1446.16 8.79852H1633.13L1863 749.548H1824.51L2058.22 8.79852H2232L1971.34 822.688H1707.37Z" fill="white"/>
<path d="M835.638 822.688V8.79852H1407.01V151.779H1012.16V679.707H1412.51V822.688H835.638ZM941.774 477.885V334.904H1350.92V477.885H941.774Z" fill="white"/>
<path d="M1793.83 1722.57V1340.42L1816.58 1416.46L1495.52 949.171H1609.91L1865.32 1318.97H1831.53L2083.69 949.171H2190.93L1876.37 1416.46L1899.12 1341.07V1722.57H1793.83Z" fill="white"/>
<path d="M880.021 1722.57V962.818C912.516 956.753 947.611 951.553 985.306 947.221C1023 942.888 1062.86 940.721 1104.89 940.721C1214.94 940.721 1296.83 959.786 1350.56 997.914C1404.72 1035.61 1431.8 1094.32 1431.8 1174.04C1432.23 1226.03 1419.23 1269.58 1392.8 1304.67C1366.8 1339.33 1328.46 1365.55 1277.77 1383.31C1227.51 1401.08 1165.77 1409.96 1092.54 1409.96C1073.48 1409.96 1054.85 1409.74 1036.65 1409.31C1018.89 1408.44 1001.34 1407.14 984.006 1405.41V1722.57H880.021ZM1375.9 1722.57L1092.54 1359.91H1208.88L1496.14 1722.57H1375.9ZM1092.54 1331.97C1177.03 1331.97 1238.12 1319.19 1275.82 1293.62C1313.51 1267.63 1332.36 1228.2 1332.36 1175.34C1332.36 1119.45 1314.81 1079.37 1279.72 1055.11C1245.05 1030.84 1189.16 1018.71 1112.04 1018.71C1086.48 1018.71 1063.51 1019.58 1043.15 1021.31C1023.22 1023.04 1003.5 1025.86 984.006 1029.76V1327.42C1004.37 1328.72 1022.13 1329.8 1037.3 1330.67C1052.46 1331.54 1070.88 1331.97 1092.54 1331.97Z" fill="white"/>
<path d="M268.665 0C282.774 3.08435e-06 296.553 0.308636 310 0.923828V144.951C300.722 144.371 291.16 144.08 281.313 144.08C267.382 144.08 252.167 144.814 235.669 146.28C219.171 147.747 203.774 149.763 189.476 152.329V681.907C204.507 683.374 219.355 684.474 234.02 685.207C249.051 685.574 264.448 685.757 280.213 685.757C290.456 685.757 300.385 685.466 310 684.887V828.341C285.759 830.07 260.433 830.938 234.02 830.938C211.289 830.937 187.459 830.387 162.529 829.287C137.599 828.554 112.303 827.271 86.6396 825.438C60.9765 823.604 35.6799 821.039 10.75 817.739V26.9463C36.0465 21.4471 62.9928 16.6812 91.5889 12.6484C120.552 8.61564 150.064 5.49952 180.127 3.2998C210.19 1.10014 239.702 0 268.665 0ZM390 8.81543C479.038 22.8489 550.045 53.6388 603.02 101.187C678.542 168.277 716.304 273.129 716.304 415.743C716.304 512.897 698.523 592.087 662.961 653.312C627.399 714.17 573.873 759.08 502.383 788.043C468.87 801.448 431.409 811.711 390 818.832V671.268C400.971 667.889 411.303 663.921 420.994 659.36C458.756 641.396 486.802 612.617 505.133 573.022C523.83 533.061 533.179 480.451 533.179 415.193C533.179 350.302 523.647 298.059 504.583 258.465C485.886 218.504 457.839 189.541 420.444 171.577C410.884 166.89 400.735 162.804 390 159.315V8.81543Z" fill="white"/>
</svg>
